<?xml version="1.0" encoding="UTF-8" standalone="no"?>
<!-- Created with Inkscape (http://www.inkscape.org/) -->
<svg
   xmlns:dc="http://purl.org/dc/elements/1.1/"
   xmlns:cc="http://web.resource.org/cc/"
   xmlns:rdf="http://www.w3.org/1999/02/22-rdf-syntax-ns#"
   xmlns:svg="http://www.w3.org/2000/svg"
   xmlns="http://www.w3.org/2000/svg"
   xmlns:sodipodi="http://sodipodi.sourceforge.net/DTD/sodipodi-0.dtd"
   xmlns:inkscape="http://www.inkscape.org/namespaces/inkscape"
   height="417.35999"
   width="350.09"
   id="svg2"
   sodipodi:version="0.32"
   inkscape:version="0.44.1"
   version="1.0"
   sodipodi:docbase="C:\Documents and Settings\Michał"
   sodipodi:docname="potworek.svg">
  <defs
     id="defs4" />
  <sodipodi:namedview
     id="base"
     pagecolor="#ffffff"
     bordercolor="#666666"
     borderopacity="1.0"
     inkscape:pageopacity="0.0"
     inkscape:pageshadow="2"
     inkscape:cx="188.67878"
     inkscape:cy="260.83747"
     inkscape:zoom="0.98994949"
     inkscape:document-units="px"
     inkscape:current-layer="layer1"
     width="350.09px"
     height="417.36px"
     showguides="true"
     inkscape:guide-bbox="true"
     inkscape:window-width="1280"
     inkscape:window-height="744"
     inkscape:window-x="-4"
     inkscape:window-y="-4" />
  <metadata
     id="metadata7">
    <rdf:RDF>
      <cc:Work
         rdf:about="">
        <dc:format>image/svg+xml</dc:format>
        <dc:type
           rdf:resource="http://purl.org/dc/dcmitype/StillImage" />
      </cc:Work>
    </rdf:RDF>
  </metadata>
  <g
     inkscape:groupmode="layer"
     inkscape:label="Warstwa 1"
     id="layer1">
    <path
       style="fill:none;fill-rule:evenodd;stroke:black;stroke-width:1px;stroke-linecap:butt;stroke-linejoin:miter;stroke-opacity:1"
       d="M 55.55839,51.347177 L 294.45946,50.337027 L 294.45946,50.337027"
       id="path1872" />
    <path
       style="fill:none;fill-rule:evenodd;stroke:black;stroke-width:1px;stroke-linecap:butt;stroke-linejoin:miter;stroke-opacity:1"
       d="M 55.305854,128.11877 L 294.20693,127.10862 L 294.20693,127.10862"
       id="path1874" />
    <path
       style="fill:none;fill-rule:evenodd;stroke:black;stroke-width:1px;stroke-linecap:butt;stroke-linejoin:miter;stroke-opacity:1"
       d="M 55.810931,202.87006 L 294.712,201.85991 L 294.712,201.85991"
       id="path1876" />
    <path
       style="fill:none;fill-rule:evenodd;stroke:black;stroke-width:1px;stroke-linecap:butt;stroke-linejoin:miter;stroke-opacity:1"
       d="M 58.336308,280.14673 L 297.23739,279.13658 L 297.23739,279.13658"
       id="path1878" />
    <path
       style="fill:none;fill-rule:evenodd;stroke:black;stroke-width:1px;stroke-linecap:butt;stroke-linejoin:miter;stroke-opacity:1"
       d="M 62.15718,368.23863 L 301.05825,367.22848 L 301.05825,367.22848"
       id="path1880" />
    <path
       style="fill:black;fill-opacity:1;fill-rule:evenodd;stroke:black;stroke-width:1px;stroke-linecap:butt;stroke-linejoin:miter;stroke-opacity:1"
       d="M 100.51018,50.842107 C 100.51018,50.842107 122.98607,24.3256 157.07872,24.07306 C 191.17137,23.82052 236.88077,49.831947 236.88077,49.831947"
       id="path1882"
       sodipodi:nodetypes="csc" />
    <path
       style="fill:black;fill-opacity:1;fill-rule:evenodd;stroke:black;stroke-width:1px;stroke-linecap:butt;stroke-linejoin:miter;stroke-opacity:1"
       d="M 83.842661,127.6137 C 83.842661,127.6137 98.489872,106.27422 109.60155,106.40049 C 120.71323,106.52676 117.80904,124.3307 128.28937,124.07816 C 138.7697,123.82562 139.90612,109.68349 151.52288,109.43095 C 163.13964,109.17841 163.77098,125.84593 174.75639,125.08831 C 185.7418,124.3307 183.46896,106.27422 195.46452,106.40049 C 207.46008,106.52676 210.99561,121.93159 223.24371,124.07817 C 235.4918,126.22474 234.60792,115.11306 244.45691,114.98679 C 254.3059,114.86052 262.13458,127.10862 262.13458,127.10862"
       id="path2770"
       sodipodi:nodetypes="csssssssc" />
    <path
       style="fill:black;fill-opacity:1;fill-rule:evenodd;stroke:black;stroke-width:1px;stroke-linecap:butt;stroke-linejoin:miter;stroke-opacity:1"
       d="M 204.05081,201.85991 C 204.05081,201.85991 174.63011,180.39417 156.57364,173.57564 C 138.51716,166.75711 139.52732,172.56549 131.82491,174.58579 C 124.1225,176.6061 125.76399,181.65686 125.76399,181.65686 C 125.76399,181.65686 126.77415,187.97032 134.35029,189.73808 C 141.92644,191.50585 148.6187,185.44492 156.06857,188.72792 C 163.51844,192.01091 164.14979,202.87006 164.14979,202.87006 L 164.14979,202.87006"
       id="path3657"
       sodipodi:nodetypes="csscsscc" />
    <path
       style="fill:black;fill-opacity:1;fill-rule:evenodd;stroke:black;stroke-width:1px;stroke-linecap:butt;stroke-linejoin:miter;stroke-opacity:1"
       d="M 162.45532,279.23279 C 162.45532,279.23279 133.03462,257.76705 114.97815,250.94852 C 96.921672,244.12999 97.931832,249.93837 90.229424,251.95867 C 82.527014,253.97898 84.168504,259.02974 84.168504,259.02974 C 84.168504,259.02974 85.178664,265.3432 92.754804,267.11096 C 100.33095,268.87873 107.02321,262.8178 114.47308,266.1008 C 121.92295,269.38379 122.5543,280.24294 122.5543,280.24294 L 122.5543,280.24294"
       id="path4544"
       sodipodi:nodetypes="csscsscc" />
    <path
       style="fill:black;fill-opacity:1;fill-rule:evenodd;stroke:black;stroke-width:1px;stroke-linecap:butt;stroke-linejoin:miter;stroke-opacity:1"
       d="M 136.87567,279.89511 C 136.87567,279.89511 159.35156,253.3786 193.44421,253.12606 C 227.53686,252.87352 273.24626,278.88495 273.24626,278.88495"
       id="path4546"
       sodipodi:nodetypes="csc" />
    <path
       style="fill:black;fill-opacity:1;fill-rule:evenodd;stroke:black;stroke-width:1px;stroke-linecap:butt;stroke-linejoin:miter;stroke-opacity:1"
       d="M 163.12064,367.264 C 163.12064,367.264 133.69994,345.79826 115.64347,338.97973 C 97.586992,332.1612 98.597152,337.96958 90.894747,339.98988 C 83.192337,342.01019 84.833827,347.06095 84.833827,347.06095 C 84.833827,347.06095 85.843987,353.37441 93.420122,355.14217 C 100.99627,356.90994 107.68853,350.84901 115.1384,354.13201 C 122.58827,357.415 123.21962,368.27415 123.21962,368.27415 L 123.21962,368.27415"
       id="path4548"
       sodipodi:nodetypes="csscsscc" />
    <path
       style="fill:black;fill-opacity:1;fill-rule:evenodd;stroke:black;stroke-width:1px;stroke-linecap:butt;stroke-linejoin:miter;stroke-opacity:1"
       d="M 270.07179,367.00573 C 270.07179,367.00573 263.01822,358.52359 251.8575,357.72002 C 240.69678,356.91645 244.17893,361.47002 231.50036,361.29145 C 218.82179,361.11288 217.83964,354.59502 207.57179,353.4343 C 197.30393,352.27359 193.28607,359.77359 184.3575,359.14859 C 175.42893,358.52359 171.32179,347.8093 162.57179,347.72002 C 153.82179,347.63073 145.78607,358.79145 145.78607,358.79145 C 145.78607,358.79145 145.33964,365.48788 144.00036,367.72002"
       id="path4552"
       sodipodi:nodetypes="cssssscs" />
  </g>
</svg>
